<svg width="25" height="26" viewBox="0 0 25 26" fill="none" xmlns="http://www.w3.org/2000/svg">
<path d="M22.4167 11.5477V12.506C22.4154 14.7523 21.6881 16.938 20.3431 18.7371C18.9981 20.5362 17.1076 21.8523 14.9535 22.4892C12.7994 23.1261 10.4972 23.0496 8.39011 22.2712C6.28304 21.4927 4.48406 20.054 3.26146 18.1696C2.03886 16.2852 1.45816 14.0561 1.60595 11.8147C1.75375 9.57326 2.62213 7.43968 4.08158 5.73212C5.54103 4.02456 7.51336 2.83453 9.7044 2.33949C11.8954 1.84445 14.1878 2.07094 16.2396 2.98517M22.4167 4.17268L14.9463 11.6505C13.5575 13.0408 12.8631 13.7359 11.9998 13.7361C11.1366 13.7363 10.4418 13.0415 9.05229 11.652L8.87504 11.4748" stroke="white" stroke-width="2.08333" stroke-linecap="round" stroke-linejoin="round"/>
</svg>
